<?xml version="1.0" encoding="utf-8"?>
<!-- Generator: Adobe Illustrator 25.2.0, SVG Export Plug-In . SVG Version: 6.00 Build 0)  -->
<svg version="1.1" id="Warstwa_1" xmlns="http://www.w3.org/2000/svg" xmlns:xlink="http://www.w3.org/1999/xlink" x="0px" y="0px"
	 viewBox="0 0 425.2 283.46" style="enable-background:new 0 0 425.2 283.46;" xml:space="preserve">
<style type="text/css">
	.st0{fill:url(#SVGID_1_);}
	.st1{fill:url(#SVGID_2_);}
	.st2{fill:#09496E;}
	.st3{fill:#1D71B8;}
	.st4{fill:url(#SVGID_3_);}
	.st5{fill:url(#SVGID_4_);}
	.st6{fill:url(#SVGID_5_);}
	.st7{fill:#C80000;}
	.st8{opacity:0.5;fill:#1D1D1D;}
	.st9{fill:url(#SVGID_6_);}
	.st10{fill:url(#SVGID_7_);}
	.st11{fill:url(#SVGID_8_);}
	.st12{fill:#FFFFFF;}
	.st13{fill:url(#SVGID_9_);}
	.st14{fill:url(#SVGID_10_);}
	.st15{fill:url(#SVGID_11_);}
	.st16{fill:url(#SVGID_12_);}
	.st17{fill:url(#SVGID_13_);}
	.st18{fill:url(#SVGID_14_);}
	.st19{fill:url(#SVGID_15_);}
</style>
<rect x="130.55" y="68.75" transform="matrix(0.7071 -0.7071 0.7071 0.7071 -21.5122 139.3398)" class="st3" width="53.78" height="53.78"/>
<rect x="33.39" y="165.91" transform="matrix(0.7071 -0.7071 0.7071 0.7071 -118.6784 99.0923)" class="st3" width="53.78" height="53.78"/>
<linearGradient id="SVGID_1_" gradientUnits="userSpaceOnUse" x1="887.1144" y1="825.3099" x2="1022.3093" y2="960.5048" gradientTransform="matrix(0.7182 -0.2818 -0.2818 0.7182 -228.1245 -228.1245)">
	<stop  offset="0" style="stop-color:#1D71B8"/>
	<stop  offset="1" style="stop-color:#1D71B8;stop-opacity:0.2"/>
</linearGradient>
<polygon class="st0" points="216.43,192.66 157.43,133.65 195.46,95.63 254.46,154.63 "/>
<rect x="227.57" y="165.77" transform="matrix(0.7071 -0.7071 0.7071 0.7071 -61.6985 236.3582)" class="st3" width="53.78" height="53.78"/>
<rect x="324.74" y="68.75" transform="matrix(0.7071 -0.7071 0.7071 0.7071 35.3631 276.649)" class="st3" width="53.78" height="53.78"/>
<linearGradient id="SVGID_2_" gradientUnits="userSpaceOnUse" x1="928.3904" y1="-675.311" x2="1063.5852" y2="-810.5059" gradientTransform="matrix(0.7212 0.2788 0.2788 0.7212 -402.1498 402.1498)">
	<stop  offset="0" style="stop-color:#1D71B8"/>
	<stop  offset="1" style="stop-color:#1D71B8;stop-opacity:0.2"/>
</linearGradient>
<polygon class="st1" points="157.88,133.23 98.08,193.03 60.05,155 119.85,95.2 "/>
<linearGradient id="SVGID_3_" gradientUnits="userSpaceOnUse" x1="1152.8479" y1="-705.7318" x2="1288.0427" y2="-840.9266" gradientTransform="matrix(0.7199 0.2801 0.2801 0.7199 -359.2646 359.2646)">
	<stop  offset="0" style="stop-color:#1D71B8"/>
	<stop  offset="1" style="stop-color:#1D71B8;stop-opacity:0.2"/>
</linearGradient>
<polygon class="st4" points="351.55,133.59 292.08,193.06 254.05,155.03 313.52,95.56 "/>
<g>
	<g>
		<path class="st12" d="M57.36,187.96L53,190.62l-2.89-5.09l8.74-5.85h5.89v26.09h-7.37V187.96z"/>
	</g>
</g>
<g>
	<g>
		<path class="st12" d="M148.25,101.67l9.69-6.99c2.73-1.98,3.38-3.15,3.38-4.52c0-1.44-1.25-2.39-2.96-2.39
			c-2.24,0-3.99,1.06-6,3.08l-4.56-4.6c2.89-3.42,6.42-5.17,10.75-5.17c6.19,0,10.37,3.72,10.37,8.77c0,3.42-1.37,6.08-6,9.04
			l-3.38,2.17h9.61v6.57h-20.89V101.67z"/>
	</g>
</g>
<g>
	<g>
		<path class="st12" d="M350.59,103.27h-12.57l-0.61-5.54l11.51-15.88h9.04V97.2h3.15v6.08h-3.15v4.63h-7.37V103.27z M350.59,97.2
			v-7.82l-5.62,7.82H350.59z"/>
	</g>
</g>
<g>
	<g>
		<path class="st12" d="M243.54,201.55l4.14-4.9c1.94,1.82,4.37,2.66,6.61,2.66c2.35,0,3.53-0.87,3.53-2.05
			c0-1.25-0.87-1.94-3.99-1.9l-3.15,0.04v-6.15h3.11c2.43,0,3.53-0.65,3.53-1.82c0-1.29-1.33-2.01-3.46-2.01
			c-2.17,0-4.03,1.03-5.7,2.58l-4.06-4.52c2.28-2.62,5.54-4.63,10.56-4.63c6.46,0,10.18,3.08,10.18,7.18c0,2.81-1.82,5.05-4.79,5.92
			c2.96,0.68,5.36,2.77,5.36,6c0,4.63-4.18,7.94-10.71,7.94C249.73,205.88,245.97,204.13,243.54,201.55z"/>
	</g>
</g>
</svg>
