<?xml version="1.0" encoding="utf-8"?>
<!-- Generator: Adobe Illustrator 25.1.0, SVG Export Plug-In . SVG Version: 6.00 Build 0)  -->
<svg class="mr-2 mt-1 flex-none" version="1.0" xmlns="http://www.w3.org/2000/svg"
                        width="17px" height="17px" viewBox="0 0 200 200"
                        preserveAspectRatio="xMidYMid meet">
<g>
	<path fill="#09496e" d="M193.68,199.3h-42.76c-1.65,0-3.22-0.69-4.34-1.9l-45.69-49.34c-0.73-0.79-1.98-0.79-2.71,0L52.45,197.4
		c-1.12,1.21-2.69,1.9-4.34,1.9H6.52c-3.27,0-5.92-2.65-5.92-5.92v-30.77c0-1.49,0.56-2.93,1.58-4.02l52.97-57.21
		c0.66-0.71,0.66-1.8,0-2.51L2.18,41.54c-1.01-1.09-1.57-2.53-1.57-4.02V6.62c0-3.27,2.65-5.92,5.92-5.92h41.59
		c1.65,0,3.22,0.69,4.34,1.9l45.71,49.32c0.73,0.79,1.98,0.79,2.71,0L146.56,2.6c1.12-1.21,2.69-1.9,4.34-1.9h42.77
		c3.27,0,5.92,2.65,5.92,5.92v30.9c0,1.46-1.32,3.03-2.34,4.13l-53.39,57.22c-0.66,0.71-0.65,1.81,0,2.51l53.72,57.28
		c1.25,1.24,2,3.29,2,5.02v29.69C199.6,196.64,196.95,199.3,193.68,199.3z"/>
</g>
</svg>
