<svg id="Warstwa_1" data-name="Warstwa 1" xmlns="http://www.w3.org/2000/svg" xmlns:xlink="http://www.w3.org/1999/xlink" viewBox="0 0 306.14 544.25"><defs><style>.cls-1{fill:url(#Gradient_bez_nazwy_41);}.cls-2{fill:url(#Gradient_bez_nazwy_41-2);}.cls-3{fill:#1d71b8;}.cls-4{fill:url(#Gradient_bez_nazwy_41-3);}.cls-5{font-size:37.97px;fill:#fff;font-family:Metropolis-Black, Metropolis;font-weight:800;}.cls-6{fill:#c80000;}</style><linearGradient id="Gradient_bez_nazwy_41" x1="-1001.36" y1="-901.88" x2="-866.17" y2="-766.68" gradientTransform="matrix(0.31, -0.71, 0.31, 0.71, 703.01, 215.02)" gradientUnits="userSpaceOnUse"><stop offset="0" stop-color="#1d71b8"/><stop offset="1" stop-color="#1d71b8" stop-opacity="0.2"/></linearGradient><linearGradient id="Gradient_bez_nazwy_41-2" x1="-116.66" y1="-944.52" x2="18.54" y2="-1079.72" gradientTransform="matrix(0.31, 0.71, -0.31, 0.71, -147.27, 938.88)" xlink:href="#Gradient_bez_nazwy_41"/><linearGradient id="Gradient_bez_nazwy_41-3" x1="109.83" y1="-976.98" x2="245.03" y2="-1112.17" gradientTransform="matrix(0.31, 0.71, -0.31, 0.71, -224.39, 995.81)" xlink:href="#Gradient_bez_nazwy_41"/></defs><rect class="cls-1" x="111.27" y="258.47" width="84.07" height="53.78" transform="translate(463.49 378.75) rotate(135)"/><rect class="cls-2" x="110.86" y="161.62" width="84.31" height="53.78" transform="translate(178.12 -52.98) rotate(45)"/><rect class="cls-3" x="174.69" y="404.38" width="53.78" height="53.78" transform="translate(363.99 -16.23) rotate(45)"/><rect class="cls-4" x="111.35" y="355.76" width="83.53" height="53.78" transform="translate(315.42 3.81) rotate(45)"/><text class="cls-5" transform="translate(187.01 443.39)">4</text><rect class="cls-3" x="174.69" y="210.19" width="53.78" height="53.78" transform="translate(226.68 -73.1) rotate(45)"/><rect class="cls-3" x="77.67" y="307.21" width="53.78" height="53.78" transform="translate(266.87 23.92) rotate(45)"/><rect class="cls-6" x="77.53" y="113.03" width="53.78" height="53.78" transform="translate(129.52 -32.85) rotate(45)"/><text class="cls-5" transform="translate(93.89 151.02)">1</text><text class="cls-5" transform="translate(190.49 249.04)">2</text><text class="cls-5" transform="translate(93.83 346.62)">3</text></svg>