<svg id="Warstwa_1" data-name="Warstwa 1" xmlns="http://www.w3.org/2000/svg" xmlns:xlink="http://www.w3.org/1999/xlink" viewBox="0 0 476.33 173.22"><defs><style>.cls-1{fill:#1d71b8;}.cls-2{fill:url(#Gradient_bez_nazwy_41);}.cls-3{fill:url(#Gradient_bez_nazwy_41-2);}.cls-4{fill:url(#Gradient_bez_nazwy_41-3);}.cls-5{font-size:37.97px;font-family:Metropolis-Black, Metropolis;font-weight:800;}.cls-5,.cls-6{fill:#fff;}</style><linearGradient id="Gradient_bez_nazwy_41" x1="-171.99" y1="-196.86" x2="-36.8" y2="-61.66" gradientTransform="matrix(0.31, -0.71, 0.31, 0.71, 306.44, 227.05)" gradientUnits="userSpaceOnUse"><stop offset="0" stop-color="#1d71b8"/><stop offset="1" stop-color="#1d71b8" stop-opacity="0.2"/></linearGradient><linearGradient id="Gradient_bez_nazwy_41-2" x1="-173.03" y1="519.82" x2="-37.83" y2="384.63" gradientTransform="matrix(0.31, 0.71, -0.31, 0.71, 311.77, -35.78)" xlink:href="#Gradient_bez_nazwy_41"/><linearGradient id="Gradient_bez_nazwy_41-3" x1="40.18" y1="500.66" x2="175.37" y2="365.46" gradientTransform="matrix(0.31, 0.71, -0.31, 0.71, 432.37, -172.79)" xlink:href="#Gradient_bez_nazwy_41"/></defs><rect class="cls-1" x="158.94" y="134.07" width="53.78" height="53.78" transform="translate(-110.03 55.61) rotate(-45)"/><rect class="cls-1" x="61.77" y="231.24" width="53.78" height="53.78" transform="translate(-207.19 15.36) rotate(-45)"/><rect class="cls-2" x="192.61" y="182.58" width="83.44" height="53.78" transform="translate(166.12 -227.28) rotate(45)"/><rect class="cls-1" x="255.96" y="231.09" width="53.78" height="53.78" transform="translate(-150.21 152.63) rotate(-45)"/><rect class="cls-1" x="353.12" y="134.07" width="53.78" height="53.78" transform="translate(-53.15 192.92) rotate(-45)"/><rect class="cls-3" x="95.07" y="182.55" width="84.57" height="53.78" transform="translate(-158.5 35.53) rotate(-45)"/><rect class="cls-4" x="289.14" y="182.75" width="84.1" height="53.78" transform="translate(-101.87 172.65) rotate(-45)"/><text class="cls-5" transform="translate(27.63 148.17)">1</text><text class="cls-5" transform="translate(124.49 50.02)">2</text><text class="cls-5" transform="translate(314.59 50.3)">4</text><text class="cls-5" transform="translate(220.68 147.77)">3</text><path class="cls-6" d="M206.31,173v-5h2.87c1.21,0,2.36.23,2.36,1.7s-1.11,1.76-2.36,1.76h-1.09V173Zm1.78-2.88h1c.2,0,.64,0,.64-.45s-.43-.41-.64-.41h-1Z" transform="translate(-50.63 -122.94)"/><path class="cls-6" d="M215.44,169.6l-.73,1.17a1.38,1.38,0,0,0-.58-.15c-.5,0-.71.27-.71.74V173h-1.51v-3.56h1.52v.31a1.39,1.39,0,0,1,1-.4A1.83,1.83,0,0,1,215.44,169.6Z" transform="translate(-50.63 -122.94)"/><path class="cls-6" d="M219.75,171.68H217c.11.2.38.31.82.31a4.24,4.24,0,0,0,1.23-.22l.54,1a5.77,5.77,0,0,1-1.77.3c-1.46,0-2.41-.74-2.41-1.85a2,2,0,0,1,2.24-1.89,1.93,1.93,0,0,1,2.17,2C219.78,171.38,219.77,171.48,219.75,171.68Zm-2.78-1h1.25a.54.54,0,0,0-.58-.39A.72.72,0,0,0,217,170.7Z" transform="translate(-50.63 -122.94)"/><path class="cls-6" d="M224.11,169.42v1l-1.76,1.45h1.73V173h-4v-.93l1.87-1.51h-1.77v-1.12Z" transform="translate(-50.63 -122.94)"/><path class="cls-6" d="M228.84,171.68h-2.79c.11.2.39.31.82.31a4.24,4.24,0,0,0,1.23-.22l.54,1a5.77,5.77,0,0,1-1.77.3c-1.46,0-2.41-.74-2.41-1.85a2,2,0,0,1,2.24-1.89,1.93,1.93,0,0,1,2.17,2A2.18,2.18,0,0,1,228.84,171.68Zm-2.78-1h1.25a.54.54,0,0,0-.58-.39A.72.72,0,0,0,226.06,170.7Z" transform="translate(-50.63 -122.94)"/><path class="cls-6" d="M233.72,170.55V173h-1.51v-1.84q0-.66-.63-.66c-.52,0-.78.32-.78.89V173h-1.51v-3.56h1.51v.35a1.7,1.7,0,0,1,1.26-.44C233.06,169.33,233.72,169.82,233.72,170.55Z" transform="translate(-50.63 -122.94)"/><path class="cls-6" d="M237.44,171.91v1a3.43,3.43,0,0,1-1,.13c-1.09,0-1.7-.48-1.7-1.34v-1.28h-.72v-1h.72v-.69l1.48-.66v1.35h1.18v1h-1.18v1.07c0,.33.21.47.58.47A2.76,2.76,0,0,0,237.44,171.91Z" transform="translate(-50.63 -122.94)"/><path class="cls-6" d="M242.14,170.78V173h-1.22l-.14-.37a1.53,1.53,0,0,1-1.2.46c-1.16,0-1.77-.44-1.77-1.23s.52-1.12,1.48-1.12h1.2c0-.21-.11-.38-.54-.38a2.61,2.61,0,0,0-1.28.34l-.81-.85a4.6,4.6,0,0,1,2.2-.5C241.46,169.33,242.14,169.8,242.14,170.78Zm-1.66.88h-.67c-.23,0-.36.08-.36.22s.19.25.42.25A.6.6,0,0,0,240.48,171.66Z" transform="translate(-50.63 -122.94)"/><path class="cls-6" d="M242.5,171.21c0-1.13.9-1.88,2.34-1.88a2.23,2.23,0,0,1,2.21,1.12l-1.38.48a.9.9,0,0,0-.83-.45.74.74,0,0,0-.84.73c0,.45.36.71.84.71a.78.78,0,0,0,.81-.46l1.36.48a2.19,2.19,0,0,1-2.16,1.13C243.4,173.07,242.5,172.29,242.5,171.21Z" transform="translate(-50.63 -122.94)"/><path class="cls-6" d="M247,174.42v-1.14l.26,0a.2.2,0,0,0,.22-.22v-3.66h1.5v4c0,.68-.36,1.09-1.16,1.09A3.06,3.06,0,0,1,247,174.42Zm.43-5.46v-1H249v1Z" transform="translate(-50.63 -122.94)"/><path class="cls-6" d="M253.68,170.78V173h-1.22l-.14-.37a1.52,1.52,0,0,1-1.2.46c-1.16,0-1.77-.44-1.77-1.23s.53-1.12,1.48-1.12H252c0-.21-.11-.38-.54-.38a2.55,2.55,0,0,0-1.27.34l-.81-.85a4.57,4.57,0,0,1,2.2-.5C253,169.33,253.68,169.8,253.68,170.78Zm-1.65.88h-.68c-.23,0-.36.08-.36.22s.2.25.42.25A.62.62,0,0,0,252,171.66Z" transform="translate(-50.63 -122.94)"/><path class="cls-6" d="M256.31,172.45l.86-.74a2.76,2.76,0,0,0,1.39.37c.31,0,.38,0,.38-.18,0-.42-2.36.4-2.36-1.25,0-.83.73-1.32,1.87-1.32a4.83,4.83,0,0,1,1.82.36l-.69.82a4.07,4.07,0,0,0-1.23-.21c-.18,0-.37,0-.37.12,0,.4,2.46-.48,2.44,1.32,0,.83-.7,1.33-1.86,1.33A3.73,3.73,0,0,1,256.31,172.45Z" transform="translate(-50.63 -122.94)"/><path class="cls-6" d="M264,171.91v1a3.5,3.5,0,0,1-1,.13c-1.09,0-1.7-.48-1.7-1.34v-1.28h-.72v-1h.72v-.69l1.49-.66v1.35H264v1h-1.17v1.07c0,.33.2.47.57.47A2.84,2.84,0,0,0,264,171.91Z" transform="translate(-50.63 -122.94)"/><path class="cls-6" d="M268.71,170.78V173h-1.22l-.14-.37a1.52,1.52,0,0,1-1.2.46c-1.16,0-1.77-.44-1.77-1.23s.53-1.12,1.48-1.12h1.2c0-.21-.11-.38-.54-.38a2.55,2.55,0,0,0-1.27.34l-.81-.85a4.57,4.57,0,0,1,2.2-.5C268,169.33,268.71,169.8,268.71,170.78Zm-1.65.88h-.68c-.23,0-.36.08-.36.22s.2.25.42.25A.62.62,0,0,0,267.06,171.66Z" transform="translate(-50.63 -122.94)"/><path class="cls-6" d="M269.07,171.21c0-1.13.9-1.88,2.35-1.88a2.22,2.22,0,0,1,2.2,1.12l-1.38.48a.87.87,0,0,0-.82-.45.75.75,0,0,0-.85.73c0,.45.36.71.84.71a.8.8,0,0,0,.82-.46l1.35.48a2.19,2.19,0,0,1-2.16,1.13C270,173.07,269.07,172.29,269.07,171.21Z" transform="translate(-50.63 -122.94)"/><path class="cls-6" d="M273.52,174.42v-1.14l.26,0a.2.2,0,0,0,.22-.22v-3.66h1.5v4c0,.68-.36,1.09-1.16,1.09A3.06,3.06,0,0,1,273.52,174.42ZM274,169v-1h1.6v1Z" transform="translate(-50.63 -122.94)"/><path class="cls-6" d="M275.92,171.19c0-1.12.89-1.86,2.32-1.86s2.33.73,2.33,1.86-.91,1.88-2.33,1.88S275.92,172.32,275.92,171.19Zm3.15,0c0-.44-.3-.71-.83-.71s-.83.27-.83.71a.73.73,0,0,0,.83.73C278.76,171.92,279.07,171.64,279.07,171.19Z" transform="translate(-50.63 -122.94)"/><path class="cls-6" d="M285.39,170.55V173h-1.5v-1.84a.58.58,0,0,0-.64-.66c-.51,0-.77.32-.77.89V173H281v-3.56h1.52v.35a1.66,1.66,0,0,1,1.25-.44C284.73,169.33,285.39,169.82,285.39,170.55Z" transform="translate(-50.63 -122.94)"/><path class="cls-6" d="M290.1,170.78V173h-1.22l-.14-.37a1.53,1.53,0,0,1-1.2.46c-1.16,0-1.77-.44-1.77-1.23s.52-1.12,1.48-1.12h1.2c0-.21-.11-.38-.54-.38a2.61,2.61,0,0,0-1.28.34l-.81-.85a4.6,4.6,0,0,1,2.2-.5C289.42,169.33,290.1,169.8,290.1,170.78Zm-1.66.88h-.67c-.23,0-.36.08-.36.22s.19.25.42.25A.6.6,0,0,0,288.44,171.66Z" transform="translate(-50.63 -122.94)"/><path class="cls-6" d="M294.16,169.6l-.73,1.17a1.38,1.38,0,0,0-.58-.15c-.51,0-.72.27-.72.74V173h-1.51v-3.56h1.53v.31a1.37,1.37,0,0,1,1-.4A1.85,1.85,0,0,1,294.16,169.6Z" transform="translate(-50.63 -122.94)"/><path class="cls-6" d="M298.89,170.55V173h-1.5v-1.84a.58.58,0,0,0-.64-.66c-.51,0-.77.32-.77.89V173h-1.51v-3.56H296v.35a1.69,1.69,0,0,1,1.25-.44C298.24,169.33,298.89,169.82,298.89,170.55Z" transform="translate(-50.63 -122.94)"/><path class="cls-6" d="M303.6,170.78V173h-1.22l-.14-.37a1.52,1.52,0,0,1-1.2.46c-1.15,0-1.77-.44-1.77-1.23s.53-1.12,1.48-1.12H302c0-.21-.11-.38-.54-.38a2.55,2.55,0,0,0-1.27.34l-.81-.85a4.57,4.57,0,0,1,2.2-.5C302.92,169.33,303.6,169.8,303.6,170.78Zm-1.65.88h-.68c-.23,0-.36.08-.36.22s.2.25.42.25A.61.61,0,0,0,302,171.66Z" transform="translate(-50.63 -122.94)"/><path class="cls-6" d="M102.07,271v-5h2.86c1.22,0,2.36.24,2.36,1.7s-1.11,1.77-2.36,1.77h-1.08V271Zm1.78-2.88h1c.21,0,.64,0,.64-.44s-.43-.41-.64-.41h-1Z" transform="translate(-50.63 -122.94)"/><path class="cls-6" d="M111.2,267.61l-.73,1.17a1.38,1.38,0,0,0-.58-.14c-.51,0-.72.26-.72.74V271h-1.51v-3.56h1.53v.31a1.39,1.39,0,0,1,1-.4A1.94,1.94,0,0,1,111.2,267.61Z" transform="translate(-50.63 -122.94)"/><path class="cls-6" d="M115.51,269.69h-2.79c.1.21.38.31.81.31a4.24,4.24,0,0,0,1.23-.22l.54,1a6.06,6.06,0,0,1-1.77.29c-1.46,0-2.4-.74-2.4-1.85a2,2,0,0,1,2.24-1.89,1.93,1.93,0,0,1,2.17,2C115.54,269.4,115.53,269.5,115.51,269.69Zm-2.79-1H114a.54.54,0,0,0-.57-.38A.73.73,0,0,0,112.72,268.71Z" transform="translate(-50.63 -122.94)"/><path class="cls-6" d="M119.86,267.43v1l-1.76,1.45h1.73V271h-4v-.93l1.87-1.51h-1.77v-1.12Z" transform="translate(-50.63 -122.94)"/><path class="cls-6" d="M124.6,269.69h-2.79c.11.21.38.31.81.31a4.18,4.18,0,0,0,1.23-.22l.55,1a6.17,6.17,0,0,1-1.78.29c-1.46,0-2.4-.74-2.4-1.85a2,2,0,0,1,2.24-1.89,1.93,1.93,0,0,1,2.17,2C124.63,269.4,124.62,269.5,124.6,269.69Zm-2.78-1h1.25a.55.55,0,0,0-.58-.38A.7.7,0,0,0,121.82,268.71Z" transform="translate(-50.63 -122.94)"/><path class="cls-6" d="M129.47,268.57V271H128v-1.83a.58.58,0,0,0-.64-.67c-.51,0-.77.33-.77.9V271h-1.51v-3.56h1.51v.35a1.73,1.73,0,0,1,1.25-.44C128.82,267.34,129.47,267.83,129.47,268.57Z" transform="translate(-50.63 -122.94)"/><path class="cls-6" d="M133.2,269.92v1a3.5,3.5,0,0,1-1,.12c-1.09,0-1.71-.48-1.71-1.34v-1.28h-.72v-1h.72v-.69l1.49-.66v1.35h1.17v1H132v1.07c0,.34.2.47.57.47A2.33,2.33,0,0,0,133.2,269.92Z" transform="translate(-50.63 -122.94)"/><path class="cls-6" d="M137.89,268.8V271h-1.22l-.14-.36a1.55,1.55,0,0,1-1.2.45c-1.15,0-1.77-.43-1.77-1.23s.53-1.11,1.48-1.11h1.2c0-.22-.1-.38-.54-.38a2.58,2.58,0,0,0-1.27.34l-.81-.86a4.69,4.69,0,0,1,2.2-.5C137.21,267.34,137.89,267.81,137.89,268.8Zm-1.65.87h-.68c-.23,0-.36.09-.36.23s.2.25.42.25A.62.62,0,0,0,136.24,269.67Z" transform="translate(-50.63 -122.94)"/><path class="cls-6" d="M138.26,269.22c0-1.12.89-1.88,2.34-1.88a2.24,2.24,0,0,1,2.2,1.12l-1.38.48a.87.87,0,0,0-.82-.45.75.75,0,0,0-.85.73c0,.45.36.71.84.71a.8.8,0,0,0,.82-.45l1.35.47a2.18,2.18,0,0,1-2.15,1.13C139.15,271.08,138.26,270.31,138.26,269.22Z" transform="translate(-50.63 -122.94)"/><path class="cls-6" d="M142.7,272.43v-1.14l.26,0a.2.2,0,0,0,.22-.21v-3.67h1.51v4c0,.68-.37,1.09-1.17,1.09A2.71,2.71,0,0,1,142.7,272.43Zm.43-5.46v-1h1.61v1Z" transform="translate(-50.63 -122.94)"/><path class="cls-6" d="M149.44,268.8V271h-1.23l-.13-.36a1.56,1.56,0,0,1-1.2.45c-1.16,0-1.78-.43-1.78-1.23s.53-1.11,1.49-1.11h1.2c0-.22-.11-.38-.54-.38a2.59,2.59,0,0,0-1.28.34l-.81-.86a4.72,4.72,0,0,1,2.2-.5C148.76,267.34,149.44,267.81,149.44,268.8Zm-1.66.87h-.67c-.23,0-.36.09-.36.23s.19.25.42.25A.61.61,0,0,0,147.78,269.67Z" transform="translate(-50.63 -122.94)"/><path class="cls-6" d="M152.15,269.21c0-1.13.9-1.87,2.32-1.87s2.33.73,2.33,1.87-.9,1.87-2.33,1.87S152.15,270.34,152.15,269.21Zm3.15,0c0-.44-.29-.72-.83-.72s-.82.28-.82.72a.72.72,0,0,0,.82.72C155,269.93,155.3,269.65,155.3,269.21Z" transform="translate(-50.63 -122.94)"/><path class="cls-6" d="M161.62,268.57V271h-1.5v-1.83a.58.58,0,0,0-.64-.67c-.51,0-.77.33-.77.9V271H157.2v-3.56h1.51v.35a1.73,1.73,0,0,1,1.25-.44C161,267.34,161.62,267.83,161.62,268.57Z" transform="translate(-50.63 -122.94)"/><path class="cls-6" d="M162.12,270V266h1.5v3.67a.2.2,0,0,0,.21.22l.25,0V271a2.92,2.92,0,0,1-.81.13A1,1,0,0,1,162.12,270Z" transform="translate(-50.63 -122.94)"/><path class="cls-6" d="M164.45,267v-1h1.6v1Zm.05,4v-3.56H166V271Z" transform="translate(-50.63 -122.94)"/><path class="cls-6" d="M171,268.57V271h-1.5v-1.83a.58.58,0,0,0-.64-.67c-.51,0-.77.33-.77.9V271h-1.52v-3.56h1.52v.35a1.7,1.7,0,0,1,1.25-.44C170.33,267.34,171,267.83,171,268.57Z" transform="translate(-50.63 -122.94)"/><path class="cls-6" d="M175.74,269.69H173c.11.21.38.31.82.31a4.24,4.24,0,0,0,1.23-.22l.54,1a6.06,6.06,0,0,1-1.77.29c-1.46,0-2.41-.74-2.41-1.85a2,2,0,0,1,2.24-1.89,1.93,1.93,0,0,1,2.17,2C175.77,269.4,175.76,269.5,175.74,269.69Zm-2.78-1h1.25a.55.55,0,0,0-.58-.38A.7.7,0,0,0,173,268.71Z" transform="translate(-50.63 -122.94)"/><path class="cls-6" d="M300.91,271v-5h1.81v5Z" transform="translate(-50.63 -122.94)"/><path class="cls-6" d="M307.71,268.6V271h-1.5v-1.84a.58.58,0,0,0-.64-.66c-.51,0-.77.32-.77.89V271h-1.51v-3.57h1.51v.36a1.69,1.69,0,0,1,1.25-.44C307.06,267.38,307.71,267.87,307.71,268.6Z" transform="translate(-50.63 -122.94)"/><path class="cls-6" d="M311.24,266h1.51v5h-1.51v-.21a1.79,1.79,0,0,1-1,.29,1.9,1.9,0,0,1-2.16-1.88,1.86,1.86,0,0,1,2.08-1.85,1.66,1.66,0,0,1,1.07.39Zm0,3.24a.83.83,0,1,0-.83.73A.74.74,0,0,0,311.24,269.23Z" transform="translate(-50.63 -122.94)"/><path class="cls-6" d="M313.82,272.5l.84-1.62L313,267.46h1.75l.68,2,.85-2h1.76l-2.63,5Z" transform="translate(-50.63 -122.94)"/><path class="cls-6" d="M319.5,271l-1.44-3.57h1.63l.57,1.58.52-1.58h1.29l.54,1.56.57-1.56h1.62L323.36,271H322l-.59-1.75-.56,1.75Z" transform="translate(-50.63 -122.94)"/><path class="cls-6" d="M325,267v-1h1.61v1Zm0,4v-3.57h1.51V271Z" transform="translate(-50.63 -122.94)"/><path class="cls-6" d="M330.16,266h1.51v5h-1.51v-.21a1.79,1.79,0,0,1-1,.29,1.9,1.9,0,0,1-2.16-1.88,1.86,1.86,0,0,1,2.08-1.85,1.66,1.66,0,0,1,1.07.39Zm0,3.24a.83.83,0,0,0-1.64,0,.83.83,0,0,0,1.64,0Z" transform="translate(-50.63 -122.94)"/><path class="cls-6" d="M335.11,267.46h1.51V271h-1.51v-.26a2,2,0,0,1-1.21.34c-1.08,0-1.7-.54-1.7-1.43v-2.22h1.5v2c0,.34.24.54.65.54.66,0,.76-.41.76-.94Z" transform="translate(-50.63 -122.94)"/><path class="cls-6" d="M341.36,268.83V271h-1.22l-.14-.37a1.51,1.51,0,0,1-1.2.45c-1.16,0-1.77-.43-1.77-1.23s.53-1.11,1.48-1.11h1.2c0-.22-.11-.38-.54-.38a2.55,2.55,0,0,0-1.27.34l-.81-.86a4.66,4.66,0,0,1,2.19-.49C340.68,267.38,341.36,267.85,341.36,268.83Zm-1.66.87H339c-.23,0-.36.09-.36.23s.2.25.42.25A.6.6,0,0,0,339.7,269.7Z" transform="translate(-50.63 -122.94)"/><path class="cls-6" d="M341.85,270v-4h1.5v3.66a.2.2,0,0,0,.21.22l.25,0V271a2.92,2.92,0,0,1-.81.13C342.21,271.12,341.85,270.72,341.85,270Z" transform="translate(-50.63 -122.94)"/><path class="cls-6" d="M348.64,268.6V271h-1.5v-1.84a.58.58,0,0,0-.64-.66c-.51,0-.77.32-.77.89V271h-1.51v-3.57h1.51v.36a1.69,1.69,0,0,1,1.25-.44C348,267.38,348.64,267.87,348.64,268.6Z" transform="translate(-50.63 -122.94)"/><path class="cls-6" d="M353.4,269.73h-2.8c.11.2.39.31.82.31a3.94,3.94,0,0,0,1.23-.23l.54,1a6.06,6.06,0,0,1-1.77.29c-1.46,0-2.41-.73-2.41-1.85a2,2,0,0,1,2.24-1.88,1.92,1.92,0,0,1,2.17,2A3.29,3.29,0,0,1,353.4,269.73Zm-2.79-1h1.25a.55.55,0,0,0-.58-.38A.73.73,0,0,0,350.61,268.74Z" transform="translate(-50.63 -122.94)"/><path class="cls-6" d="M356,270.5l.85-.75a2.67,2.67,0,0,0,1.4.37c.31,0,.37,0,.37-.17,0-.43-2.36.4-2.36-1.25,0-.83.73-1.32,1.87-1.32a4.65,4.65,0,0,1,1.82.36l-.69.81a4.39,4.39,0,0,0-1.23-.2c-.18,0-.37,0-.37.12,0,.4,2.47-.49,2.44,1.32,0,.83-.7,1.32-1.86,1.32A3.67,3.67,0,0,1,356,270.5Z" transform="translate(-50.63 -122.94)"/><path class="cls-6" d="M365.13,269.26a1.86,1.86,0,0,1-2.09,1.85,1.77,1.77,0,0,1-1.07-.37v1.76h-1.51v-5H362v.21a1.79,1.79,0,0,1,1-.29C364.29,267.38,365.13,268.12,365.13,269.26Zm-1.51,0a.83.83,0,1,0-.82.73A.74.74,0,0,0,363.62,269.26Z" transform="translate(-50.63 -122.94)"/><path class="cls-6" d="M365.39,269.24c0-1.13.89-1.86,2.32-1.86s2.33.73,2.33,1.86-.91,1.87-2.33,1.87S365.39,270.37,365.39,269.24Zm3.15,0c0-.44-.3-.71-.83-.71s-.83.27-.83.71.32.72.83.72S368.54,269.68,368.54,269.24Z" transform="translate(-50.63 -122.94)"/><path class="cls-6" d="M373.65,270v1a3.5,3.5,0,0,1-1,.12c-1.1,0-1.71-.47-1.71-1.33V268.5h-.72v-1H371v-.68l1.49-.66v1.34h1.17v1h-1.17v1.07c0,.33.2.47.57.47A2.84,2.84,0,0,0,373.65,270Z" transform="translate(-50.63 -122.94)"/><path class="cls-6" d="M374.16,271v-5h1.51v2.44l1.08-1h2.05l-1.65,1.33,1.76,2.24h-1.86l-1-1.42-.41.39v1Z" transform="translate(-50.63 -122.94)"/><path class="cls-6" d="M383.3,268.83V271h-1.22l-.14-.37a1.51,1.51,0,0,1-1.2.45c-1.15,0-1.77-.43-1.77-1.23s.53-1.11,1.48-1.11h1.2c0-.22-.1-.38-.54-.38a2.58,2.58,0,0,0-1.27.34l-.81-.86a4.67,4.67,0,0,1,2.2-.49C382.62,267.38,383.3,267.85,383.3,268.83Zm-1.65.87H381c-.23,0-.36.09-.36.23s.2.25.42.25A.61.61,0,0,0,381.65,269.7Z" transform="translate(-50.63 -122.94)"/><path class="cls-6" d="M388.25,268.6V271h-1.5v-1.84a.58.58,0,0,0-.64-.66c-.51,0-.77.32-.77.89V271h-1.52v-3.57h1.52v.36a1.66,1.66,0,0,1,1.25-.44C387.59,267.38,388.25,267.87,388.25,268.6Z" transform="translate(-50.63 -122.94)"/><path class="cls-6" d="M388.74,267v-1h1.6v1Zm.05,4v-3.57h1.5V271Z" transform="translate(-50.63 -122.94)"/><path class="cls-6" d="M395.08,269.73h-2.79c.11.2.38.31.81.31a3.94,3.94,0,0,0,1.23-.23l.55,1a6.17,6.17,0,0,1-1.78.29c-1.46,0-2.4-.73-2.4-1.85a2,2,0,0,1,2.24-1.88,1.92,1.92,0,0,1,2.17,2C395.11,269.43,395.1,269.53,395.08,269.73Zm-2.79-1h1.25a.54.54,0,0,0-.57-.38A.75.75,0,0,0,392.29,268.74Z" transform="translate(-50.63 -122.94)"/><path class="cls-6" d="M397.07,173v-5h2.87c1.21,0,2.35.24,2.35,1.7s-1.1,1.77-2.35,1.77h-1.09V173Zm1.78-2.88h1c.2,0,.63,0,.63-.44s-.42-.41-.63-.41h-1Z" transform="translate(-50.63 -122.94)"/><path class="cls-6" d="M402.46,171.26c0-1.13.9-1.87,2.32-1.87s2.33.73,2.33,1.87-.9,1.87-2.33,1.87S402.46,172.39,402.46,171.26Zm3.16,0c0-.44-.3-.72-.84-.72s-.82.28-.82.72a.72.72,0,0,0,.82.72C405.3,172,405.62,171.7,405.62,171.26Z" transform="translate(-50.63 -122.94)"/><path class="cls-6" d="M410.51,168H412v5h-1.51v-.2a1.8,1.8,0,0,1-1,.29,1.9,1.9,0,0,1-2.15-1.89,1.86,1.86,0,0,1,2.08-1.85,1.76,1.76,0,0,1,1.07.39Zm0,3.25a.83.83,0,1,0-.83.73A.74.74,0,0,0,410.51,171.25Z" transform="translate(-50.63 -122.94)"/><path class="cls-6" d="M417.26,171.28a1.86,1.86,0,0,1-2.09,1.85,1.72,1.72,0,0,1-1.06-.37v1.76H412.6v-5h1.51v.21a1.7,1.7,0,0,1,1-.3A1.9,1.9,0,0,1,417.26,171.28Zm-1.5,0a.76.76,0,0,0-.83-.73.73.73,0,1,0,0,1.46A.75.75,0,0,0,415.76,171.27Z" transform="translate(-50.63 -122.94)"/><path class="cls-6" d="M417.64,169v-1h1.6v1Zm.05,4v-3.56h1.5V173Z" transform="translate(-50.63 -122.94)"/><path class="cls-6" d="M419.52,172.52l.85-.75a2.67,2.67,0,0,0,1.4.37c.31,0,.37,0,.37-.17,0-.43-2.36.4-2.36-1.25,0-.84.74-1.33,1.87-1.33a4.83,4.83,0,0,1,1.82.36l-.69.82a4.39,4.39,0,0,0-1.23-.2c-.18,0-.37,0-.37.11,0,.4,2.47-.48,2.44,1.33,0,.82-.7,1.32-1.86,1.32A3.74,3.74,0,0,1,419.52,172.52Z" transform="translate(-50.63 -122.94)"/><path class="cls-6" d="M428.2,170.85V173H427l-.14-.36a1.55,1.55,0,0,1-1.2.45c-1.15,0-1.77-.43-1.77-1.23s.53-1.11,1.48-1.11h1.2c0-.22-.1-.38-.54-.38a2.55,2.55,0,0,0-1.27.34l-.81-.86a4.69,4.69,0,0,1,2.2-.5C427.52,169.39,428.2,169.86,428.2,170.85Zm-1.65.87h-.68c-.23,0-.36.09-.36.23s.2.25.42.25A.62.62,0,0,0,426.55,171.72Z" transform="translate(-50.63 -122.94)"/><path class="cls-6" d="M433.15,170.61V173h-1.5v-1.83a.58.58,0,0,0-.64-.67c-.51,0-.77.33-.77.9V173h-1.52v-3.56h1.52v.35a1.7,1.7,0,0,1,1.25-.44C432.49,169.39,433.15,169.88,433.15,170.61Z" transform="translate(-50.63 -122.94)"/><path class="cls-6" d="M433.64,169v-1h1.6v1Zm.05,4v-3.56h1.5V173Z" transform="translate(-50.63 -122.94)"/><path class="cls-6" d="M440,171.74h-2.79c.1.21.38.31.81.31a4.24,4.24,0,0,0,1.23-.22l.55,1a6.17,6.17,0,0,1-1.78.29c-1.46,0-2.4-.74-2.4-1.85a2,2,0,0,1,2.24-1.89,1.93,1.93,0,0,1,2.17,2C440,171.45,440,171.55,440,171.74Zm-2.79-1h1.25a.54.54,0,0,0-.57-.38A.73.73,0,0,0,437.19,170.76Z" transform="translate(-50.63 -122.94)"/><path class="cls-6" d="M445.64,169.48h1.5V173h-1.5v-.25a2,2,0,0,1-1.21.34c-1.08,0-1.7-.54-1.7-1.43v-2.22h1.5v2c0,.35.24.55.65.55.66,0,.76-.42.76-.94Z" transform="translate(-50.63 -122.94)"/><path class="cls-6" d="M454.64,170.67V173h-1.52V171.1a.53.53,0,0,0-.54-.56c-.86,0-.65.75-.65,1V173h-1.5v-1.95a.52.52,0,0,0-.52-.55c-.83,0-.68.74-.68,1V173h-1.52v-3.56h1.45v.4a1.43,1.43,0,0,1,1.15-.49,1.38,1.38,0,0,1,1.29.68,1.6,1.6,0,0,1,1.44-.68A1.45,1.45,0,0,1,454.64,170.67Z" transform="translate(-50.63 -122.94)"/><path class="cls-6" d="M455,171.26c0-1.13.89-1.87,2.32-1.87s2.33.73,2.33,1.87-.91,1.87-2.33,1.87S455,172.39,455,171.26Zm3.15,0c0-.44-.3-.72-.83-.72s-.83.28-.83.72a.73.73,0,0,0,.83.72C457.85,172,458.16,171.7,458.16,171.26Z" transform="translate(-50.63 -122.94)"/><path class="cls-6" d="M461,173l-1.44-3.56h1.62l.57,1.58.53-1.58h1.28l.54,1.56.58-1.56h1.62L464.89,173h-1.35L463,171.3l-.56,1.74Z" transform="translate(-50.63 -122.94)"/><path class="cls-6" d="M467.1,174.52l.85-1.63-1.62-3.41h1.75l.67,2,.85-2h1.76l-2.63,5Z" transform="translate(-50.63 -122.94)"/><path class="cls-6" d="M474.57,173v-2.53h-.77v-1h.78v-.15c0-.86.37-1.41,1.53-1.41a2.89,2.89,0,0,1,1,.16l-.49,1a1.24,1.24,0,0,0-.32-.07c-.14,0-.22.09-.22.33v.12h.82v1h-.82V173Z" transform="translate(-50.63 -122.94)"/><path class="cls-6" d="M480.79,169.66l-.74,1.17a1.3,1.3,0,0,0-.57-.14c-.51,0-.72.26-.72.74V173h-1.51v-3.56h1.52v.31a1.41,1.41,0,0,1,1-.4A1.85,1.85,0,0,1,480.79,169.66Z" transform="translate(-50.63 -122.94)"/><path class="cls-6" d="M485.29,170.85V173h-1.22l-.14-.36a1.55,1.55,0,0,1-1.2.45c-1.16,0-1.77-.43-1.77-1.23s.53-1.11,1.48-1.11h1.2c0-.22-.11-.38-.54-.38a2.55,2.55,0,0,0-1.27.34l-.81-.86a4.69,4.69,0,0,1,2.2-.5C484.61,169.39,485.29,169.86,485.29,170.85Zm-1.66.87H483c-.23,0-.36.09-.36.23s.2.25.42.25A.61.61,0,0,0,483.63,171.72Z" transform="translate(-50.63 -122.94)"/><path class="cls-6" d="M490.24,170.61V173h-1.51v-1.83c0-.44-.21-.67-.63-.67s-.78.33-.78.9V173h-1.51v-3.56h1.51v.35a1.73,1.73,0,0,1,1.25-.44C489.58,169.39,490.24,169.88,490.24,170.61Z" transform="translate(-50.63 -122.94)"/><path class="cls-6" d="M490.61,171.27c0-1.12.89-1.88,2.34-1.88a2.25,2.25,0,0,1,2.21,1.12l-1.38.48a.9.9,0,0,0-.83-.45.73.73,0,1,0,0,1.44.79.79,0,0,0,.82-.45l1.35.47a2.16,2.16,0,0,1-2.15,1.13C491.5,173.13,490.61,172.36,490.61,171.27Z" transform="translate(-50.63 -122.94)"/><path class="cls-6" d="M499.49,169.48v1l-1.76,1.45h1.73V173h-4v-.93l1.88-1.51h-1.77v-1.12Z" transform="translate(-50.63 -122.94)"/><path class="cls-6" d="M500.48,174.52l.85-1.63-1.62-3.41h1.75l.67,2,.85-2h1.76l-2.63,5Z" transform="translate(-50.63 -122.94)"/><path class="cls-6" d="M509,169.48v1l-1.75,1.45h1.72V173h-4v-.93l1.87-1.51H505v-1.12Z" transform="translate(-50.63 -122.94)"/><path class="cls-6" d="M509.32,171.26c0-1.13.9-1.87,2.32-1.87s2.33.73,2.33,1.87-.91,1.87-2.33,1.87S509.32,172.39,509.32,171.26Zm3.15,0c0-.44-.3-.72-.83-.72s-.82.28-.82.72a.72.72,0,0,0,.82.72C512.16,172,512.47,171.7,512.47,171.26Z" transform="translate(-50.63 -122.94)"/><path class="cls-6" d="M515.34,173l-1.44-3.56h1.62l.58,1.58.52-1.58h1.28l.54,1.56.58-1.56h1.62L519.2,173h-1.35l-.59-1.74L516.7,173Z" transform="translate(-50.63 -122.94)"/><path class="cls-6" d="M525,171.74h-2.79c.11.21.38.31.82.31a4.3,4.3,0,0,0,1.23-.22l.54,1a6.11,6.11,0,0,1-1.77.29c-1.46,0-2.41-.74-2.41-1.85a2,2,0,0,1,2.24-1.89,1.93,1.93,0,0,1,2.17,2C525,171.45,525,171.55,525,171.74Zm-2.78-1h1.25a.55.55,0,0,0-.58-.38A.7.7,0,0,0,522.19,170.76Z" transform="translate(-50.63 -122.94)"/><path class="cls-6" d="M524.94,174.48v-1.14l.26,0a.19.19,0,0,0,.21-.21v-3.67h1.51v4c0,.68-.37,1.09-1.17,1.09A2.59,2.59,0,0,1,524.94,174.48Zm.42-5.46v-1H527v1Z" transform="translate(-50.63 -122.94)"/></svg>